<?xml version="1.0" encoding="UTF-8" standalone="no"?>
<!DOCTYPE svg PUBLIC "-//W3C//DTD SVG 1.1//EN" "http://www.w3.org/Graphics/SVG/1.1/DTD/svg11.dtd">
<svg xmlns="http://www.w3.org/2000/svg" version="1.1" viewBox="0 0 1600 1309">
<g stroke-width="2.00" fill="none" stroke-linecap="butt">
<path stroke="#f5bb80" vector-effect="non-scaling-stroke" d="
  M 1370.4974 742.0180
  A 331.40 300.85 -0.5 0 0 1036.4846 444.0715
  A 331.40 300.85 -0.5 0 0 707.7226 747.8020
  A 331.40 300.85 -0.5 0 0 1041.7354 1045.7485
  A 331.40 300.85 -0.5 0 0 1370.4974 742.0180"
/>
<path stroke="#93abc3" vector-effect="non-scaling-stroke" d="
  M 1251.0597 730.9688
  A 211.30 191.95 0.1 0 0 1040.0950 538.6503
  A 211.30 191.95 0.1 0 0 828.4603 730.2312
  A 211.30 191.95 0.1 0 0 1039.4250 922.5497
  A 211.30 191.95 0.1 0 0 1251.0597 730.9688"
/>
</g>
<path fill="#ea7600" d="
  M 570.50 444.39
  L 524.00 444.54
  Q 436.89 444.57 349.78 444.74
  Q 349.71 444.74 337.22 444.93
  Q 331.14 445.03 325.06 444.81
  Q 316.08 444.47 312.94 444.25
  Q 289.81 442.62 270.81 430.69
  Q 259.45 423.55 251.95 412.16
  Q 246.25 403.51 243.91 393.97
  Q 240.69 380.82 243.57 367.01
  Q 247.32 349.04 258.58 334.58
  Q 271.87 317.49 290.58 306.60
  Q 317.86 290.73 349.00 288.96
  Q 352.58 288.75 369.00 288.74
  Q 671.90 288.59 974.61 288.06
  Q 975.67 288.06 974.85 287.39
  Q 873.69 205.19 773.06 123.19
  Q 768.05 119.10 763.63 113.90
  Q 759.16 108.63 756.29 102.95
  Q 743.93 78.53 758.06 53.56
  Q 763.49 43.97 772.76 36.02
  Q 789.91 21.31 811.79 15.50
  Q 829.22 10.87 847.25 11.64
  Q 880.25 13.04 905.59 33.23
  Q 911.56 37.99 911.63 38.04
  Q 1118.57 196.86 1325.31 355.94
  Q 1385.80 402.48 1397.90 412.10
  Q 1491.66 486.65 1540.94 594.31
  Q 1563.65 643.94 1574.23 699.66
  Q 1576.09 709.43 1577.47 719.40
  Q 1595.80 851.69 1541.56 972.56
  Q 1507.92 1047.54 1449.99 1108.74
  Q 1390.47 1171.64 1314.17 1212.65
  Q 1198.40 1274.89 1066.25 1281.25
  Q 1016.95 1283.62 969.17 1278.20
  Q 826.84 1262.03 710.31 1182.69
  Q 647.17 1139.69 597.43 1077.82
  Q 541.90 1008.73 514.95 924.56
  Q 511.79 914.68 509.37 905.35
  Q 500.33 870.49 497.56 834.50
  Q 497.38 832.22 496.97 829.97
  Q 496.50 827.44 496.56 825.47
  Q 497.29 801.00 500.74 776.80
  Q 500.84 776.14 500.32 776.56
  Q 464.44 805.53 428.80 834.76
  Q 257.55 975.22 200.44 1022.19
  Q 190.10 1030.69 181.57 1036.32
  Q 153.50 1054.86 119.99 1058.70
  Q 95.06 1061.55 72.05 1053.26
  Q 62.54 1049.83 54.27 1044.27
  Q 20.19 1021.38 18.06 979.51
  Q 17.56 969.71 19.27 959.59
  Q 24.04 931.33 41.44 907.44
  Q 54.88 888.98 72.10 875.81
  Q 353.55 660.65 635.31 445.37
  Q 636.78 444.25 634.94 444.25
  L 570.50 444.39
  Z
  M 1370.4974 742.0180
  A 331.40 300.85 -0.5 0 0 1036.4846 444.0715
  A 331.40 300.85 -0.5 0 0 707.7226 747.8020
  A 331.40 300.85 -0.5 0 0 1041.7354 1045.7485
  A 331.40 300.85 -0.5 0 0 1370.4974 742.0180
  Z"
/>
<path fill="#ffffff" d="
  M 1370.4974 742.0180
  A 331.40 300.85 -0.5 0 1 1041.7354 1045.7485
  A 331.40 300.85 -0.5 0 1 707.7226 747.8020
  A 331.40 300.85 -0.5 0 1 1036.4846 444.0715
  A 331.40 300.85 -0.5 0 1 1370.4974 742.0180
  Z
  M 1251.0597 730.9688
  A 211.30 191.95 0.1 0 0 1040.0950 538.6503
  A 211.30 191.95 0.1 0 0 828.4603 730.2312
  A 211.30 191.95 0.1 0 0 1039.4250 922.5497
  A 211.30 191.95 0.1 0 0 1251.0597 730.9688
  Z"
/>
<ellipse fill="#265787" cx="0.00" cy="0.00" transform="translate(1039.76,730.60) rotate(0.1)" rx="211.30" ry="191.95"/>
</svg>
