<?xml version="1.0" encoding="UTF-8" standalone="no"?>
<!DOCTYPE svg PUBLIC "-//W3C//DTD SVG 1.1//EN" "http://www.w3.org/Graphics/SVG/1.1/DTD/svg11.dtd">
<svg xmlns="http://www.w3.org/2000/svg" version="1.1" viewBox="0 0 1366 1535">
<g stroke-width="2.00" fill="none" stroke-linecap="butt">
<path stroke="#337ab7" vector-effect="non-scaling-stroke" d="
  M 1348.54 384.25
  Q 1225.48 455.05 1197.69 471.19
  Q 1137.62 506.07 1077.29 540.50"
/>
<path stroke="#b2cde9" vector-effect="non-scaling-stroke" d="
  M 1077.29 540.50
  Q 1044.13 483.63 997.19 439.06
  Q 932.87 378.00 850.07 345.09
  Q 840.81 341.41 831.32 338.16
  Q 719.20 299.75 602.08 320.41
  Q 592.35 322.13 582.47 324.37
  Q 552.70 331.12 527.31 340.56
  Q 391.56 391.07 308.59 509.69
  Q 302.79 517.98 297.54 526.34
  Q 242.61 613.86 230.56 716.81
  Q 229.41 726.65 228.77 736.72
  Q 220.05 875.20 288.50 995.71"
/>
<path stroke="#336faa" vector-effect="non-scaling-stroke" d="
  M 288.50 995.71
  Q 287.95 995.89 287.55 996.27
  Q 286.97 996.81 286.71 996.96
  Q 152.18 1074.70 17.54 1152.25"
/>
<path stroke="#80acce" vector-effect="non-scaling-stroke" d="
  M 1077.29 540.50
  Q 979.96 597.18 882.31 653.31
  Q 880.71 654.24 880.25 654.29"
/>
<path stroke="#b2cde9" vector-effect="non-scaling-stroke" d="
  M 880.25 654.29
  Q 839.68 586.48 767.28 557.14
  Q 758.15 553.44 748.42 550.49
  Q 733.29 545.91 719.75 543.75
  Q 644.11 531.67 576.11 567.71
  Q 535.07 589.47 506.19 625.19
  Q 464.81 676.36 456.99 741.56
  Q 455.80 751.52 455.51 761.50
  Q 453.63 825.81 485.96 881.75"
/>
<path stroke="#80a2c1" vector-effect="non-scaling-stroke" d="
  M 485.96 881.75
  Q 507.35 919.14 541.04 945.97
  Q 585.18 981.12 640.21 991.75
  Q 649.97 993.63 660.00 994.63
  Q 713.31 999.93 762.25 981.50
  Q 838.03 952.96 880.04 882.25"
/>
<path stroke="#80acce" vector-effect="non-scaling-stroke" d="
  M 880.04 882.25
  Q 880.39 882.05 881.06 882.44
  Q 979.19 939.19 1077.29 996.00"
/>
<path stroke="#80a2c1" vector-effect="non-scaling-stroke" d="
  M 1077.29 996.00
  Q 1031.43 1074.68 959.81 1129.31
  Q 861.63 1204.21 738.00 1220.00
  Q 682.23 1227.12 623.75 1219.46"
/>
<path stroke="#b2cde9" vector-effect="non-scaling-stroke" d="
  M 623.75 1219.46
  Q 622.21 1218.71 620.50 1219.04"
/>
<path stroke="#80a2c1" vector-effect="non-scaling-stroke" d="
  M 620.50 1219.04
  Q 597.87 1215.97 578.25 1211.25
  Q 466.96 1184.51 381.08 1108.41
  Q 328.70 1061.99 292.94 1002.81
  Q 289.66 997.38 288.50 995.71"
/>
<path stroke="#004f8f" vector-effect="non-scaling-stroke" d="
  M 1349.00 1151.54
  Q 1348.10 1152.11 1347.51 1151.64
  Q 1347.14 1151.34 1347.07 1151.30
  Q 1212.93 1073.88 1078.81 996.44
  Q 1077.93 995.93 1077.29 996.00"
/>
<path stroke="#004f8f" vector-effect="non-scaling-stroke" d="
  M 880.04 882.25
  Q 879.95 881.65 879.42 881.35
  Q 782.64 825.70 686.09 769.63
  Q 684.81 768.89 684.75 767.46"
/>
<path stroke="#337ab7" vector-effect="non-scaling-stroke" d="
  M 684.75 767.46
  L 880.25 654.29"
/>
<path stroke="#80acce" vector-effect="non-scaling-stroke" d="
  M 1088.30 793.56
  L 1137.56 793.56
  A 0.51 0.49 -0.0 0 0 1138.07 793.07
  L 1138.19 743.30
  A 0.50 0.48 0.0 0 0 1137.69 742.82
  L 1088.52 742.99
  A 0.79 0.77 89.3 0 1 1087.74 742.21
  L 1087.57 692.94
  A 0.50 0.50 0.0 0 0 1087.07 692.44
  L 1037.81 692.56
  A 0.51 0.50 -90.0 0 0 1037.31 693.07
  L 1037.19 742.45
  A 0.49 0.49 0.0 0 1 1036.70 742.94
  L 987.20 743.06
  A 0.71 0.70 90.0 0 0 986.50 743.77
  L 986.50 792.94
  A 0.56 0.56 0.0 0 0 987.06 793.50
  L 1036.40 793.50
  A 0.85 0.85 90.0 0 1 1037.25 794.35
  L 1037.31 843.61
  A 0.67 0.65 -0.0 0 0 1037.98 844.26
  L 1087.23 844.18
  A 0.52 0.51 0.0 0 0 1087.75 843.67
  L 1087.81 794.06
  A 0.50 0.49 -90.0 0 1 1088.30 793.56"
/>
<path stroke="#80acce" vector-effect="non-scaling-stroke" d="
  M 1226.93 794.46
  L 1226.76 843.48
  A 0.77 0.76 0.4 0 0 1227.53 844.25
  L 1276.57 844.25
  A 0.94 0.93 90.0 0 0 1277.50 843.31
  L 1277.56 794.05
  A 0.50 0.49 -0.0 0 1 1278.06 793.56
  L 1327.27 793.50
  A 0.73 0.72 0.0 0 0 1328.00 792.78
  L 1328.00 743.56
  A 0.56 0.56 0.0 0 0 1327.44 743.00
  L 1278.18 743.00
  A 0.68 0.68 0.0 0 1 1277.50 742.32
  L 1277.50 693.06
  A 0.56 0.56 0.0 0 0 1276.94 692.50
  L 1227.25 692.50
  A 0.50 0.50 0.0 0 0 1226.75 693.00
  L 1226.75 742.19
  A 0.81 0.81 0.0 0 1 1225.94 743.00
  L 1177.10 743.00
  A 0.85 0.85 90.0 0 0 1176.25 743.85
  L 1176.25 792.98
  A 0.52 0.52 0.0 0 0 1176.77 793.50
  L 1225.98 793.50
  A 0.96 0.95 -90.0 0 1 1226.93 794.46"
/>
<path stroke="#336faa" vector-effect="non-scaling-stroke" d="
  M 684.75 767.46
  Q 600.94 815.43 517.42 863.90
  Q 501.77 872.97 485.96 881.75"
/>
<path stroke="#336faa" vector-effect="non-scaling-stroke" d="
  M 620.50 1219.04
  Q 622.04 1219.79 623.75 1219.46"
/>
</g>
<path fill="#659ad2" d="
  M 679.81 0.00
  L 686.31 0.00
  Q 696.68 0.49 705.25 1.75
  Q 725.62 4.75 743.83 15.25
  Q 1022.88 176.17 1301.94 337.06
  Q 1331.99 354.39 1348.54 384.25
  Q 1225.48 455.05 1197.69 471.19
  Q 1137.62 506.07 1077.29 540.50
  Q 1044.13 483.63 997.19 439.06
  Q 932.87 378.00 850.07 345.09
  Q 840.81 341.41 831.32 338.16
  Q 719.20 299.75 602.08 320.41
  Q 592.35 322.13 582.47 324.37
  Q 552.70 331.12 527.31 340.56
  Q 391.56 391.07 308.59 509.69
  Q 302.79 517.98 297.54 526.34
  Q 242.61 613.86 230.56 716.81
  Q 229.41 726.65 228.77 736.72
  Q 220.05 875.20 288.50 995.71
  Q 287.95 995.89 287.55 996.27
  Q 286.97 996.81 286.71 996.96
  Q 152.18 1074.70 17.54 1152.25
  Q 2.17 1126.87 0.00 1097.19
  L 0.00 438.94
  Q 0.96 428.37 1.56 425.56
  Q 8.83 391.53 31.31 364.31
  Q 38.91 355.12 47.75 347.98
  Q 53.20 343.57 64.47 337.06
  Q 339.90 177.83 615.53 18.93
  Q 627.39 12.09 633.19 9.60
  Q 650.22 2.29 669.00 0.77
  Q 674.40 0.34 679.81 0.00
  Z"
/>
<path fill="#ffffff" d="
  M 1077.29 540.50
  Q 979.96 597.18 882.31 653.31
  Q 880.71 654.24 880.25 654.29
  Q 839.68 586.48 767.28 557.14
  Q 758.15 553.44 748.42 550.49
  Q 733.29 545.91 719.75 543.75
  Q 644.11 531.67 576.11 567.71
  Q 535.07 589.47 506.19 625.19
  Q 464.81 676.36 456.99 741.56
  Q 455.80 751.52 455.51 761.50
  Q 453.63 825.81 485.96 881.75
  Q 507.35 919.14 541.04 945.97
  Q 585.18 981.12 640.21 991.75
  Q 649.97 993.63 660.00 994.63
  Q 713.31 999.93 762.25 981.50
  Q 838.03 952.96 880.04 882.25
  Q 880.39 882.05 881.06 882.44
  Q 979.19 939.19 1077.29 996.00
  Q 1031.43 1074.68 959.81 1129.31
  Q 861.63 1204.21 738.00 1220.00
  Q 682.23 1227.12 623.75 1219.46
  Q 622.21 1218.71 620.50 1219.04
  Q 597.87 1215.97 578.25 1211.25
  Q 466.96 1184.51 381.08 1108.41
  Q 328.70 1061.99 292.94 1002.81
  Q 289.66 997.38 288.50 995.71
  Q 220.05 875.20 228.77 736.72
  Q 229.41 726.65 230.56 716.81
  Q 242.61 613.86 297.54 526.34
  Q 302.79 517.98 308.59 509.69
  Q 391.56 391.07 527.31 340.56
  Q 552.70 331.12 582.47 324.37
  Q 592.35 322.13 602.08 320.41
  Q 719.20 299.75 831.32 338.16
  Q 840.81 341.41 850.07 345.09
  Q 932.87 378.00 997.19 439.06
  Q 1044.13 483.63 1077.29 540.50
  Z"
/>
<path fill="#00599c" d="
  M 1348.54 384.25
  Q 1363.95 410.02 1366.00 440.06
  L 1366.00 1096.56
  Q 1364.00 1126.10 1349.00 1151.54
  Q 1348.10 1152.11 1347.51 1151.64
  Q 1347.14 1151.34 1347.07 1151.30
  Q 1212.93 1073.88 1078.81 996.44
  Q 1077.93 995.93 1077.29 996.00
  Q 979.19 939.19 881.06 882.44
  Q 880.39 882.05 880.04 882.25
  Q 879.95 881.65 879.42 881.35
  Q 782.64 825.70 686.09 769.63
  Q 684.81 768.89 684.75 767.46
  L 880.25 654.29
  Q 880.71 654.24 882.31 653.31
  Q 979.96 597.18 1077.29 540.50
  Q 1137.62 506.07 1197.69 471.19
  Q 1225.48 455.05 1348.54 384.25
  Z
  M 1088.30 793.56
  L 1137.56 793.56
  A 0.51 0.49 -0.0 0 0 1138.07 793.07
  L 1138.19 743.30
  A 0.50 0.48 0.0 0 0 1137.69 742.82
  L 1088.52 742.99
  A 0.79 0.77 89.3 0 1 1087.74 742.21
  L 1087.57 692.94
  A 0.50 0.50 0.0 0 0 1087.07 692.44
  L 1037.81 692.56
  A 0.51 0.50 -90.0 0 0 1037.31 693.07
  L 1037.19 742.45
  A 0.49 0.49 0.0 0 1 1036.70 742.94
  L 987.20 743.06
  A 0.71 0.70 90.0 0 0 986.50 743.77
  L 986.50 792.94
  A 0.56 0.56 0.0 0 0 987.06 793.50
  L 1036.40 793.50
  A 0.85 0.85 90.0 0 1 1037.25 794.35
  L 1037.31 843.61
  A 0.67 0.65 -0.0 0 0 1037.98 844.26
  L 1087.23 844.18
  A 0.52 0.51 0.0 0 0 1087.75 843.67
  L 1087.81 794.06
  A 0.50 0.49 -90.0 0 1 1088.30 793.56
  Z
  M 1226.93 794.46
  L 1226.76 843.48
  A 0.77 0.76 0.4 0 0 1227.53 844.25
  L 1276.57 844.25
  A 0.94 0.93 90.0 0 0 1277.50 843.31
  L 1277.56 794.05
  A 0.50 0.49 -0.0 0 1 1278.06 793.56
  L 1327.27 793.50
  A 0.73 0.72 0.0 0 0 1328.00 792.78
  L 1328.00 743.56
  A 0.56 0.56 0.0 0 0 1327.44 743.00
  L 1278.18 743.00
  A 0.68 0.68 0.0 0 1 1277.50 742.32
  L 1277.50 693.06
  A 0.56 0.56 0.0 0 0 1276.94 692.50
  L 1227.25 692.50
  A 0.50 0.50 0.0 0 0 1226.75 693.00
  L 1226.75 742.19
  A 0.81 0.81 0.0 0 1 1225.94 743.00
  L 1177.10 743.00
  A 0.85 0.85 90.0 0 0 1176.25 743.85
  L 1176.25 792.98
  A 0.52 0.52 0.0 0 0 1176.77 793.50
  L 1225.98 793.50
  A 0.96 0.95 -90.0 0 1 1226.93 794.46
  Z"
/>
<path fill="#659ad2" d="
  M 880.25 654.29
  L 684.75 767.46
  Q 600.94 815.43 517.42 863.90
  Q 501.77 872.97 485.96 881.75
  Q 453.63 825.81 455.51 761.50
  Q 455.80 751.52 456.99 741.56
  Q 464.81 676.36 506.19 625.19
  Q 535.07 589.47 576.11 567.71
  Q 644.11 531.67 719.75 543.75
  Q 733.29 545.91 748.42 550.49
  Q 758.15 553.44 767.28 557.14
  Q 839.68 586.48 880.25 654.29
  Z"
/>
<path fill="#ffffff" d="
  M 1087.81 794.06
  L 1087.75 843.67
  A 0.52 0.51 0.0 0 1 1087.23 844.18
  L 1037.98 844.26
  A 0.67 0.65 -0.0 0 1 1037.31 843.61
  L 1037.25 794.35
  A 0.85 0.85 -90.0 0 0 1036.40 793.50
  L 987.06 793.50
  A 0.56 0.56 0.0 0 1 986.50 792.94
  L 986.50 743.77
  A 0.71 0.70 90.0 0 1 987.20 743.06
  L 1036.70 742.94
  A 0.49 0.49 0.0 0 0 1037.19 742.45
  L 1037.31 693.07
  A 0.51 0.50 -90.0 0 1 1037.81 692.56
  L 1087.07 692.44
  A 0.50 0.50 0.0 0 1 1087.57 692.94
  L 1087.74 742.21
  A 0.79 0.77 89.3 0 0 1088.52 742.99
  L 1137.69 742.82
  A 0.50 0.48 0.0 0 1 1138.19 743.30
  L 1138.07 793.07
  A 0.51 0.49 -0.0 0 1 1137.56 793.56
  L 1088.30 793.56
  A 0.50 0.49 -90.0 0 0 1087.81 794.06
  Z"
/>
<path fill="#ffffff" d="
  M 1226.93 794.46
  A 0.96 0.95 90.0 0 0 1225.98 793.50
  L 1176.77 793.50
  A 0.52 0.52 0.0 0 1 1176.25 792.98
  L 1176.25 743.85
  A 0.85 0.85 -90.0 0 1 1177.10 743.00
  L 1225.94 743.00
  A 0.81 0.81 0.0 0 0 1226.75 742.19
  L 1226.75 693.00
  A 0.50 0.50 0.0 0 1 1227.25 692.50
  L 1276.94 692.50
  A 0.56 0.56 0.0 0 1 1277.50 693.06
  L 1277.50 742.32
  A 0.68 0.68 -0.0 0 0 1278.18 743.00
  L 1327.44 743.00
  A 0.56 0.56 0.0 0 1 1328.00 743.56
  L 1328.00 792.78
  A 0.73 0.72 0.0 0 1 1327.27 793.50
  L 1278.06 793.56
  A 0.50 0.49 -0.0 0 0 1277.56 794.05
  L 1277.50 843.31
  A 0.94 0.93 90.0 0 1 1276.57 844.25
  L 1227.53 844.25
  A 0.77 0.76 0.4 0 1 1226.76 843.48
  L 1226.93 794.46
  Z"
/>
<path fill="#004482" d="
  M 684.75 767.46
  Q 684.81 768.89 686.09 769.63
  Q 782.64 825.70 879.42 881.35
  Q 879.95 881.65 880.04 882.25
  Q 838.03 952.96 762.25 981.50
  Q 713.31 999.93 660.00 994.63
  Q 649.97 993.63 640.21 991.75
  Q 585.18 981.12 541.04 945.97
  Q 507.35 919.14 485.96 881.75
  Q 501.77 872.97 517.42 863.90
  Q 600.94 815.43 684.75 767.46
  Z"
/>
<path fill="#004482" d="
  M 288.50 995.71
  Q 289.66 997.38 292.94 1002.81
  Q 328.70 1061.99 381.08 1108.41
  Q 466.96 1184.51 578.25 1211.25
  Q 597.87 1215.97 620.50 1219.04
  Q 622.04 1219.79 623.75 1219.46
  Q 682.23 1227.12 738.00 1220.00
  Q 861.63 1204.21 959.81 1129.31
  Q 1031.43 1074.68 1077.29 996.00
  Q 1077.93 995.93 1078.81 996.44
  Q 1212.93 1073.88 1347.07 1151.30
  Q 1347.14 1151.34 1347.51 1151.64
  Q 1348.10 1152.11 1349.00 1151.54
  Q 1336.69 1174.07 1316.81 1189.59
  Q 1311.15 1194.01 1300.03 1200.44
  Q 1027.38 1357.97 754.60 1515.27
  Q 754.53 1515.31 747.60 1519.47
  Q 727.53 1531.50 704.19 1535.00
  L 661.44 1535.00
  Q 647.82 1532.89 635.17 1527.80
  Q 628.64 1525.17 617.40 1518.69
  Q 345.69 1361.94 73.97 1205.18
  Q 59.57 1196.87 56.76 1195.02
  Q 32.05 1178.73 17.54 1152.25
  Q 152.18 1074.70 286.71 996.96
  Q 286.97 996.81 287.55 996.27
  Q 287.95 995.89 288.50 995.71
  Z"
/>
<path fill="#659ad2" d="
  M 620.50 1219.04
  Q 622.21 1218.71 623.75 1219.46
  Q 622.04 1219.79 620.50 1219.04
  Z"
/>
</svg>
