<?xml version="1.0" encoding="UTF-8" standalone="no"?>
<!DOCTYPE svg PUBLIC "-//W3C//DTD SVG 1.1//EN" "http://www.w3.org/Graphics/SVG/1.1/DTD/svg11.dtd">
<svg xmlns="http://www.w3.org/2000/svg" version="1.1" viewBox="0 0 1182 1773">
<g stroke-width="2.00" fill="none" stroke-linecap="butt">
<path stroke="#f96040" vector-effect="non-scaling-stroke" d="
  M 591.31 0.00
  Q 591.29 9.01 591.16 18.01
  Q 591.00 28.94 591.00 36.00
  Q 591.00 312.87 591.00 589.75
  Q 591.00 590.61 591.25 590.96"
/>
<path stroke="#ca548f" vector-effect="non-scaling-stroke" d="
  M 591.00 591.04
  L 289.50 591.21"
/>
<path stroke="#996975" stroke-opacity="0.992" vector-effect="non-scaling-stroke" d="
  M 898.25 590.79
  L 872.71 591.00"
/>
<path stroke="#996975" stroke-opacity="0.992" vector-effect="non-scaling-stroke" d="
  M 872.71 591.00
  L 867.50 591.04"
/>
<path stroke="#268ec4" stroke-opacity="0.992" vector-effect="non-scaling-stroke" d="
  M 898.25 591.46
  L 872.00 591.46"
/>
<path stroke="#5694c1" vector-effect="non-scaling-stroke" d="
  M 590.98 1181.83
  Q 444.21 1182.12 297.50 1182.00
  Q 295.33 1182.00 285.25 1181.54"
/>
<path stroke="#268ec4" stroke-opacity="0.992" vector-effect="non-scaling-stroke" d="
  M 872.00 591.46
  L 868.75 591.54"
/>
</g>
<path fill="#f24e1e" d="
  M 289.06 0.00
  L 591.31 0.00
  Q 591.29 9.01 591.16 18.01
  Q 591.00 28.94 591.00 36.00
  Q 591.00 312.87 591.00 589.75
  Q 591.00 590.61 591.25 590.96
  L 591.00 591.04
  L 289.50 591.21
  Q 282.59 590.64 275.66 590.18
  Q 266.64 589.58 261.85 589.03
  Q 205.67 582.53 156.56 556.19
  Q 93.11 522.15 52.12 462.76
  Q 46.42 454.50 41.34 445.90
  Q 3.20 381.22 0.21 305.25
  L 0.21 286.50
  Q 2.60 218.08 34.03 158.09
  Q 38.63 149.31 43.94 140.74
  Q 83.23 77.28 147.06 40.06
  Q 212.01 2.20 289.06 0.00
  Z"
/>
<path fill="#ff7262" d="
  M 591.31 0.00
  L 892.31 0.00
  Q 968.39 1.97 1032.44 38.56
  Q 1107.89 81.67 1149.06 160.19
  Q 1180.73 220.57 1181.79 291.75
  L 1181.79 298.25
  Q 1180.76 379.96 1139.44 447.94
  Q 1102.46 508.77 1043.19 545.94
  Q 977.33 587.23 898.25 590.79
  L 872.71 591.00
  L 867.50 591.04
  L 591.25 590.96
  Q 591.00 590.61 591.00 589.75
  Q 591.00 312.87 591.00 36.00
  Q 591.00 28.94 591.16 18.01
  Q 591.29 9.01 591.31 0.00
  Z"
/>
<path fill="#326089" fill-opacity="0.984" d="
  M 898.25 590.79
  Q 897.90 591.10 898.25 591.46
  L 872.00 591.46
  Q 872.46 591.28 872.71 591.00
  L 898.25 590.79
  Z"
/>
<path fill="#a259ff" d="
  M 591.00 591.04
  Q 591.00 720.15 590.76 849.25
  Q 590.74 859.38 591.04 869.50
  Q 590.87 887.34 590.89 905.19
  Q 591.06 1043.40 590.98 1181.83
  Q 444.21 1182.12 297.50 1182.00
  Q 295.33 1182.00 285.25 1181.54
  Q 274.59 1181.42 264.00 1180.25
  Q 196.44 1172.80 139.34 1137.24
  Q 130.97 1132.02 122.76 1126.05
  Q 51.01 1073.88 19.31 991.44
  Q 2.35 947.33 0.21 897.25
  L 0.21 875.50
  Q 3.08 809.09 32.81 751.31
  Q 59.89 698.71 106.35 659.87
  Q 160.60 614.52 229.06 598.56
  Q 258.27 591.75 289.50 591.21
  L 591.00 591.04
  Z"
/>
<path fill="#326089" fill-opacity="0.984" d="
  M 867.50 591.04
  L 872.71 591.00
  Q 872.46 591.28 872.00 591.46
  L 868.75 591.54
  Q 867.92 591.70 867.50 591.04
  Z"
/>
<path fill="#1abcfe" d="
  M 898.25 591.46
  Q 914.54 591.80 932.56 594.69
  Q 993.84 604.50 1045.50 637.50
  Q 1113.87 681.17 1150.83 754.80
  Q 1155.38 763.87 1159.17 772.99
  Q 1183.12 830.65 1181.75 893.25
  Q 1181.03 926.08 1173.00 958.51
  Q 1170.61 968.16 1167.46 977.73
  Q 1143.43 1050.60 1087.47 1102.86
  Q 1080.17 1109.68 1072.39 1115.98
  Q 1006.75 1169.13 922.50 1179.75
  Q 885.58 1184.41 847.65 1179.45
  Q 837.84 1178.17 827.92 1176.11
  Q 739.06 1157.62 675.61 1093.29
  Q 668.59 1086.18 662.09 1078.54
  Q 597.24 1002.22 591.25 900.50
  Q 590.88 894.21 591.46 869.50
  Q 597.00 782.14 647.00 713.50
  Q 688.92 655.95 751.06 623.81
  Q 805.74 595.54 868.75 591.54
  L 872.00 591.46
  L 898.25 591.46
  Z"
/>
<path fill="#0acf83" d="
  M 285.25 1181.54
  Q 295.33 1182.00 297.50 1182.00
  Q 444.21 1182.12 590.98 1181.83
  Q 591.02 1329.19 590.99 1476.75
  Q 590.98 1533.69 570.26 1586.19
  Q 566.64 1595.37 562.25 1604.52
  Q 527.08 1677.75 460.44 1722.69
  Q 388.87 1770.94 300.44 1773.00
  L 289.94 1773.00
  L 280.50 1772.54
  Q 203.29 1768.41 139.00 1728.00
  Q 65.06 1681.52 27.44 1601.56
  Q 5.48 1554.90 1.21 1501.75
  L 0.71 1497.00
  L 0.46 1489.25
  Q -0.06 1478.00 0.46 1466.75
  Q 0.76 1453.32 2.51 1440.00
  Q 12.39 1364.67 56.94 1303.44
  Q 104.26 1238.39 178.95 1206.02
  Q 188.32 1201.96 197.58 1198.73
  Q 235.12 1185.61 275.01 1182.94
  Q 279.93 1182.61 284.82 1182.02
  Q 285.00 1182.00 285.17 1182.01
  Q 287.18 1182.08 285.25 1181.54
  Z"
/>
</svg>
