<?xml version="1.0" encoding="UTF-8" standalone="no"?>
<!DOCTYPE svg PUBLIC "-//W3C//DTD SVG 1.1//EN" "http://www.w3.org/Graphics/SVG/1.1/DTD/svg11.dtd">
<svg xmlns="http://www.w3.org/2000/svg" version="1.1" viewBox="0 0 1353 1549">
<g stroke-width="2.00" fill="none" stroke-linecap="butt">
<path stroke="#f1a793" vector-effect="non-scaling-stroke" d="
  M 681.50 284.71
  L 244.98 284.75
  A 0.71 0.71 -2.6 0 0 244.27 285.52
  L 291.53 802.31
  A 0.48 0.48 87.4 0 0 292.01 802.75
  L 681.51 802.77"
/>
<path stroke="#e95a28" vector-effect="non-scaling-stroke" d="
  M 681.51 802.77
  Q 681.73 813.50 681.69 823.56
  Q 681.18 947.64 681.75 1071.71"
/>
<path stroke="#f1a793" vector-effect="non-scaling-stroke" d="
  M 681.75 1071.71
  Q 677.14 1073.09 672.47 1074.27
  Q 670.52 1074.76 668.55 1074.19
  Q 573.59 1046.92 478.80 1019.08
  A 0.74 0.73 -84.3 0 1 478.27 1018.43
  L 468.17 888.14
  A 0.97 0.97 -2.2 0 0 467.20 887.25
  L 298.92 887.25
  A 0.74 0.73 87.5 0 0 298.19 888.05
  L 321.27 1155.95
  A 0.72 0.70 5.4 0 0 321.80 1156.57
  L 669.43 1253.62
  A 4.96 3.44 -36.0 0 0 671.77 1253.57
  L 681.46 1251.00"
/>
<path stroke="#e95a28" vector-effect="non-scaling-stroke" d="
  M 681.46 1251.00
  Q 681.45 1258.26 681.58 1265.51
  Q 681.74 1273.94 681.69 1280.00
  Q 681.18 1346.12 681.75 1412.14
  A 0.38 0.38 -8.1 0 0 682.24 1412.50
  L 1137.84 1280.43
  A 2.37 2.36 84.4 0 0 1139.54 1278.36
  Q 1189.09 708.15 1238.41 140.29
  Q 1238.42 140.18 1238.77 138.25
  Q 1239.20 135.87 1236.78 136.07
  Q 1234.78 136.25 1234.71 136.25
  Q 1097.45 135.95 960.19 135.43
  Q 821.00 134.90 682.10 134.56
  A 0.42 0.41 90.0 0 0 681.69 134.98
  L 681.50 284.71"
/>
<path stroke="#f7b295" vector-effect="non-scaling-stroke" d="
  M 681.46 1251.00
  L 1021.72 1156.72
  A 1.08 1.07 -5.2 0 0 1022.50 1155.79
  L 1069.72 631.83
  A 0.76 0.76 2.7 0 0 1068.96 631.00
  L 681.98 631.00"
/>
<path stroke="#e95a28" vector-effect="non-scaling-stroke" d="
  M 681.98 631.00
  Q 681.56 617.27 681.56 588.44
  Q 681.58 486.86 681.52 467.56
  Q 681.50 460.68 681.25 453.79"
/>
<path stroke="#f7b295" vector-effect="non-scaling-stroke" d="
  M 681.25 453.79
  L 1084.44 453.75
  A 1.13 1.13 2.5 0 0 1085.57 452.72
  L 1101.26 285.60
  A 0.78 0.78 2.7 0 0 1100.48 284.75
  L 681.50 284.71"
/>
<path stroke="#f1a793" vector-effect="non-scaling-stroke" d="
  M 681.25 453.79
  L 431.57 453.81
  A 0.46 0.45 -2.8 0 0 431.11 454.31
  L 448.55 630.48
  A 0.58 0.57 87.2 0 0 449.12 631.00
  L 681.98 631.00"
/>
<path stroke="#f7b295" vector-effect="non-scaling-stroke" d="
  M 681.75 1071.71
  L 859.21 1023.82
  A 0.77 0.77 -3.0 0 0 859.77 1023.20
  Q 860.58 1018.46 861.00 1013.67
  Q 861.77 1005.01 861.78 1004.97
  Q 872.52 904.89 882.94 803.56
  A 0.74 0.73 -87.2 0 0 882.21 802.75
  L 681.51 802.77"
/>
</g>
<path fill="#e34f26" d="
  M 1353.00 5.53
  L 1353.00 6.81
  Q 1327.43 298.89 1302.13 590.99
  Q 1267.69 988.62 1233.26 1386.14
  A 0.72 0.70 -6.1 0 1 1232.75 1386.76
  L 682.45 1546.06
  A 3.33 3.31 -45.2 0 1 680.61 1546.07
  Q 411.83 1470.59 144.00 1395.25
  Q 120.99 1388.78 113.79 1386.58
  A 0.73 0.73 -84.2 0 1 113.27 1385.94
  Q 57.42 704.85 1.74 23.75
  Q 0.95 14.09 0.00 4.44
  L 0.00 2.69
  Q 404.63 3.44 809.25 4.38
  Q 1037.86 4.91 1189.25 5.00
  Q 1193.06 5.00 1195.25 5.00
  Q 1274.13 5.09 1353.00 5.53
  Z
  M 681.50 284.71
  L 244.98 284.75
  A 0.71 0.71 -2.6 0 0 244.27 285.52
  L 291.53 802.31
  A 0.48 0.48 87.4 0 0 292.01 802.75
  L 681.51 802.77
  Q 681.73 813.50 681.69 823.56
  Q 681.18 947.64 681.75 1071.71
  Q 677.14 1073.09 672.47 1074.27
  Q 670.52 1074.76 668.55 1074.19
  Q 573.59 1046.92 478.80 1019.08
  A 0.74 0.73 -84.3 0 1 478.27 1018.43
  L 468.17 888.14
  A 0.97 0.97 -2.2 0 0 467.20 887.25
  L 298.92 887.25
  A 0.74 0.73 87.5 0 0 298.19 888.05
  L 321.27 1155.95
  A 0.72 0.70 5.4 0 0 321.80 1156.57
  L 669.43 1253.62
  A 4.96 3.44 -36.0 0 0 671.77 1253.57
  L 681.46 1251.00
  Q 681.45 1258.26 681.58 1265.51
  Q 681.74 1273.94 681.69 1280.00
  Q 681.18 1346.12 681.75 1412.14
  A 0.38 0.38 -8.1 0 0 682.24 1412.50
  L 1137.84 1280.43
  A 2.37 2.36 84.4 0 0 1139.54 1278.36
  Q 1189.09 708.15 1238.41 140.29
  Q 1238.42 140.18 1238.77 138.25
  Q 1239.20 135.87 1236.78 136.07
  Q 1234.78 136.25 1234.71 136.25
  Q 1097.45 135.95 960.19 135.43
  Q 821.00 134.90 682.10 134.56
  A 0.42 0.41 90.0 0 0 681.69 134.98
  L 681.50 284.71
  Z"
/>
<path fill="#ef652a" d="
  M 681.46 1251.00
  L 1021.72 1156.72
  A 1.08 1.07 -5.2 0 0 1022.50 1155.79
  L 1069.72 631.83
  A 0.76 0.76 2.7 0 0 1068.96 631.00
  L 681.98 631.00
  Q 681.56 617.27 681.56 588.44
  Q 681.58 486.86 681.52 467.56
  Q 681.50 460.68 681.25 453.79
  L 1084.44 453.75
  A 1.13 1.13 2.5 0 0 1085.57 452.72
  L 1101.26 285.60
  A 0.78 0.78 2.7 0 0 1100.48 284.75
  L 681.50 284.71
  L 681.69 134.98
  A 0.42 0.41 -90.0 0 1 682.10 134.56
  Q 821.00 134.90 960.19 135.43
  Q 1097.45 135.95 1234.71 136.25
  Q 1234.78 136.25 1236.78 136.07
  Q 1239.20 135.87 1238.77 138.25
  Q 1238.42 140.18 1238.41 140.29
  Q 1189.09 708.15 1139.54 1278.36
  A 2.37 2.36 84.4 0 1 1137.84 1280.43
  L 682.24 1412.50
  A 0.38 0.38 -8.1 0 1 681.75 1412.14
  Q 681.18 1346.12 681.69 1280.00
  Q 681.74 1273.94 681.58 1265.51
  Q 681.45 1258.26 681.46 1251.00
  Z"
/>
<path fill="#ffffff" d="
  M 681.50 284.71
  L 1100.48 284.75
  A 0.78 0.78 2.7 0 1 1101.26 285.60
  L 1085.57 452.72
  A 1.13 1.13 2.5 0 1 1084.44 453.75
  L 681.25 453.79
  L 431.57 453.81
  A 0.46 0.45 -2.8 0 0 431.11 454.31
  L 448.55 630.48
  A 0.58 0.57 87.2 0 0 449.12 631.00
  L 681.98 631.00
  L 1068.96 631.00
  A 0.76 0.76 2.7 0 1 1069.72 631.83
  L 1022.50 1155.79
  A 1.08 1.07 -5.2 0 1 1021.72 1156.72
  L 681.46 1251.00
  L 671.77 1253.57
  A 4.96 3.44 -36.0 0 1 669.43 1253.62
  L 321.80 1156.57
  A 0.72 0.70 5.4 0 1 321.27 1155.95
  L 298.19 888.05
  A 0.74 0.73 87.5 0 1 298.92 887.25
  L 467.20 887.25
  A 0.97 0.97 -2.2 0 1 468.17 888.14
  L 478.27 1018.43
  A 0.74 0.73 -84.3 0 0 478.80 1019.08
  Q 573.59 1046.92 668.55 1074.19
  Q 670.52 1074.76 672.47 1074.27
  Q 677.14 1073.09 681.75 1071.71
  L 859.21 1023.82
  A 0.77 0.77 -3.0 0 0 859.77 1023.20
  Q 860.58 1018.46 861.00 1013.67
  Q 861.77 1005.01 861.78 1004.97
  Q 872.52 904.89 882.94 803.56
  A 0.74 0.73 -87.2 0 0 882.21 802.75
  L 681.51 802.77
  L 292.01 802.75
  A 0.48 0.48 87.4 0 1 291.53 802.31
  L 244.27 285.52
  A 0.71 0.71 -2.6 0 1 244.98 284.75
  L 681.50 284.71
  Z"
/>
<path fill="#e34f26" d="
  M 681.25 453.79
  Q 681.50 460.68 681.52 467.56
  Q 681.58 486.86 681.56 588.44
  Q 681.56 617.27 681.98 631.00
  L 449.12 631.00
  A 0.58 0.57 87.2 0 1 448.55 630.48
  L 431.11 454.31
  A 0.46 0.45 -2.8 0 1 431.57 453.81
  L 681.25 453.79
  Z"
/>
<path fill="#ef652a" d="
  M 681.75 1071.71
  Q 681.18 947.64 681.69 823.56
  Q 681.73 813.50 681.51 802.77
  L 882.21 802.75
  A 0.74 0.73 -87.2 0 1 882.94 803.56
  Q 872.52 904.89 861.78 1004.97
  Q 861.77 1005.01 861.00 1013.67
  Q 860.58 1018.46 859.77 1023.20
  A 0.77 0.77 -3.0 0 1 859.21 1023.82
  L 681.75 1071.71
  Z"
/>
</svg>
