<?xml version="1.0" encoding="UTF-8" standalone="no"?>
<!DOCTYPE svg PUBLIC "-//W3C//DTD SVG 1.1//EN" "http://www.w3.org/Graphics/SVG/1.1/DTD/svg11.dtd">
<svg xmlns="http://www.w3.org/2000/svg" version="1.1" viewBox="0 0 1689 1240">
<g stroke-width="2.00" fill="none" stroke-linecap="butt">
<path stroke="#bca026" stroke-opacity="0.843" vector-effect="non-scaling-stroke" d="
  M 356.75 63.79
  Q 354.87 63.65 354.86 64.70
  Q 354.86 65.37 354.75 65.65
  Q 354.01 67.72 354.00 71.25
  Q 353.98 76.25 354.29 81.25"
/>
<path stroke="#a99326" stroke-opacity="0.980" vector-effect="non-scaling-stroke" d="
  M 1332.46 74.75
  Q 1330.81 79.12 1331.71 83.75"
/>
<path stroke="#a99326" stroke-opacity="0.980" vector-effect="non-scaling-stroke" d="
  M 440.71 1053.00
  Q 441.33 1049.59 440.29 1046.25"
/>
<path stroke="#a99326" stroke-opacity="0.980" vector-effect="non-scaling-stroke" d="
  M 440.29 1046.25
  Q 440.55 1044.12 439.37 1042.26"
/>
<path stroke="#a99326" stroke-opacity="0.980" vector-effect="non-scaling-stroke" d="
  M 376.96 338.25
  L 376.71 331.00"
/>
<path stroke="#a99326" stroke-opacity="0.980" vector-effect="non-scaling-stroke" d="
  M 376.71 331.00
  Q 377.12 328.83 375.79 327.25"
/>
<path stroke="#a99326" stroke-opacity="0.980" vector-effect="non-scaling-stroke" d="
  M 357.96 127.25
  Q 358.23 121.23 357.46 115.25"
/>
<path stroke="#bca026" stroke-opacity="0.843" vector-effect="non-scaling-stroke" d="
  M 357.46 115.25
  L 357.04 108.25"
/>
<path stroke="#bca026" stroke-opacity="0.843" vector-effect="non-scaling-stroke" d="
  M 357.04 108.25
  Q 358.07 103.14 356.81 95.22
  Q 356.61 94.00 356.95 92.80
  Q 357.64 90.31 355.38 88.32
  A 1.43 1.09 -77.8 0 1 354.99 87.49
  L 354.29 81.25"
/>
<path stroke="#edc933" vector-effect="non-scaling-stroke" d="
  M 843.69 251.94
  Q 843.36 529.09 843.48 693.56
  Q 843.63 893.62 843.56 1093.69
  A 0.43 0.42 85.4 0 0 844.05 1094.11
  Q 847.60 1093.54 851.07 1092.59
  Q 1007.93 1049.68 1164.75 1006.63
  Q 1164.82 1006.61 1166.15 1006.37
  Q 1168.50 1005.95 1168.75 1003.00
  Q 1181.36 856.80 1213.00 505.50
  Q 1218.78 441.30 1244.00 157.50
  Q 1244.34 153.70 1243.68 151.71
  A 0.65 0.59 -11.7 0 0 1243.00 151.31
  Q 1241.06 151.51 1237.50 151.50
  Q 1085.71 151.29 844.44 151.69
  A 0.51 0.51 -89.4 0 0 843.93 152.19
  Q 843.78 173.63 843.69 251.94"
/>
<path stroke="#e3d38d" vector-effect="non-scaling-stroke" d="
  M 707.96 790.53
  Q 699.20 787.63 693.25 786.00
  Q 606.07 762.08 519.39 737.86
  A 0.90 0.90 -81.9 0 0 518.25 738.72
  Q 517.68 795.38 518.25 851.59
  A 1.08 1.07 -82.9 0 0 519.04 852.62
  Q 569.44 866.48 619.38 880.54
  Q 628.94 883.23 638.66 885.87
  Q 720.61 908.12 803.20 931.60
  A 0.60 0.59 6.8 0 0 803.96 931.01
  Q 803.34 916.79 803.35 903.00
  Q 803.55 592.16 803.44 280.27
  A 1.52 1.52 0.1 0 0 801.92 278.75
  L 709.24 278.75
  A 0.99 0.99 0.0 0 0 708.25 279.74
  Q 707.82 501.87 708.07 724.25
  Q 708.10 757.22 708.43 790.18
  A 0.36 0.36 -81.4 0 1 707.96 790.53"
/>
<path stroke="#ffec9c" vector-effect="non-scaling-stroke" d="
  M 1076.91 669.39
  Q 1075.89 696.42 1074.41 724.26
  Q 1073.35 744.25 1072.45 765.37
  A 1.62 1.62 84.0 0 1 1071.24 766.87
  Q 1022.81 779.24 973.83 792.40
  Q 948.13 799.31 922.34 805.93
  Q 902.85 810.94 883.37 816.54
  A 1.20 1.19 -8.1 0 0 882.50 817.69
  Q 882.50 872.25 882.39 925.00
  Q 882.38 927.76 882.06 930.06
  A 0.79 0.79 86.5 0 0 883.04 930.93
  L 1146.54 862.17
  A 1.43 1.42 -4.7 0 0 1147.61 860.92
  Q 1149.89 837.22 1151.39 814.43
  Q 1151.96 805.84 1152.92 795.10
  Q 1153.78 785.43 1154.41 775.74
  Q 1155.06 765.76 1155.98 755.81
  Q 1157.41 740.42 1158.26 725.00
  Q 1158.78 715.60 1159.75 705.04
  Q 1160.86 693.01 1162.25 674.00
  Q 1164.44 644.04 1172.52 545.18
  A 0.47 0.46 2.9 0 0 1172.06 544.68
  Q 1167.44 544.68 1158.75 545.75
  Q 1069.88 556.67 979.03 567.74
  A 1.31 1.31 -3.5 0 1 977.56 566.44
  L 977.50 394.91
  A 1.41 1.40 90.0 0 1 978.90 393.50
  Q 1067.90 393.10 1157.51 393.24
  Q 1157.52 393.24 1169.49 393.49
  Q 1175.49 393.62 1181.49 393.28
  Q 1181.91 393.26 1182.46 393.45
  Q 1183.60 393.86 1184.41 393.13
  A 1.47 1.00 79.2 0 0 1184.79 392.25
  Q 1185.79 379.82 1187.13 367.43
  Q 1188.06 358.74 1188.84 347.51
  Q 1189.72 334.85 1191.25 322.25
  Q 1192.05 315.70 1192.55 302.57
  Q 1192.77 296.78 1193.39 290.97
  Q 1194.00 285.26 1194.53 279.37
  A 0.57 0.56 -87.2 0 0 1193.97 278.75
  L 883.57 278.81
  A 0.81 0.81 -89.6 0 0 882.76 279.61
  Q 882.40 302.62 882.41 325.00
  Q 882.50 506.87 882.50 688.75
  Q 882.50 688.86 882.63 694.24
  Q 882.73 698.21 882.27 702.07
  A 0.62 0.62 -1.4 0 0 882.99 702.75
  Q 933.55 694.01 984.02 684.84
  Q 1029.61 676.56 1075.78 668.41
  A 0.96 0.96 85.9 0 1 1076.91 669.39"
/>
</g>
<path fill="#917b1b" fill-opacity="0.686" d="
  M 356.75 63.79
  Q 354.87 63.65 354.86 64.70
  Q 354.86 65.37 354.75 65.65
  Q 354.01 67.72 354.00 71.25
  Q 353.98 76.25 354.29 81.25
  L 354.46 92.75
  Q 354.67 88.83 351.75 90.43
  Q 351.32 90.67 351.35 90.18
  Q 351.55 86.60 351.00 82.00
  Q 350.03 73.94 350.65 64.69
  A 0.67 0.56 -89.1 0 1 351.18 64.07
  L 356.75 63.79
  Z"
/>
<path fill="#dab92d" d="
  M 356.75 63.79
  Q 363.41 64.11 370.08 63.84
  Q 372.16 63.76 373.91 63.90
  Q 375.19 64.01 376.48 64.13
  Q 377.78 64.25 379.04 64.25
  Q 848.63 64.25 1318.21 64.25
  Q 1318.25 64.25 1324.29 64.05
  Q 1328.70 63.90 1333.06 64.60
  A 0.54 0.52 -82.5 0 1 1333.49 65.18
  L 1332.46 74.75
  Q 1330.81 79.12 1331.71 83.75
  Q 1324.08 172.75 1318.75 230.00
  Q 1314.45 276.15 1311.73 308.25
  Q 1307.06 363.29 1301.93 418.29
  Q 1300.92 429.10 1300.12 438.21
  Q 1275.33 717.02 1259.25 895.00
  Q 1251.05 985.71 1245.37 1053.60
  Q 1245.36 1053.65 1245.37 1056.41
  Q 1245.39 1060.72 1240.56 1062.06
  Q 1089.37 1104.30 938.25 1146.76
  Q 891.04 1160.02 842.98 1173.21
  Q 841.02 1173.75 839.14 1173.01
  Q 835.19 1171.47 830.79 1170.35
  Q 822.93 1168.35 822.89 1168.33
  Q 633.31 1114.91 442.47 1061.14
  A 1.30 1.30 2.6 0 1 441.58 1060.25
  Q 440.57 1056.67 440.71 1053.00
  Q 441.33 1049.59 440.29 1046.25
  Q 440.55 1044.12 439.37 1042.26
  Q 437.69 1016.06 436.50 1005.25
  Q 434.92 990.88 433.76 976.47
  Q 432.49 960.82 432.11 956.54
  Q 419.63 817.40 407.01 678.27
  Q 402.73 631.08 398.84 583.85
  Q 398.24 576.64 397.01 565.06
  Q 396.01 555.67 395.24 546.25
  Q 393.34 523.23 391.11 500.28
  L 390.29 491.50
  Q 387.13 453.49 383.68 415.51
  Q 380.18 376.89 376.96 338.25
  L 376.71 331.00
  Q 377.12 328.83 375.79 327.25
  L 357.96 127.25
  Q 358.23 121.23 357.46 115.25
  L 357.04 108.25
  Q 358.07 103.14 356.81 95.22
  Q 356.61 94.00 356.95 92.80
  Q 357.64 90.31 355.38 88.32
  A 1.43 1.09 -77.8 0 1 354.99 87.49
  L 354.29 81.25
  Q 353.98 76.25 354.00 71.25
  Q 354.01 67.72 354.75 65.65
  Q 354.86 65.37 354.86 64.70
  Q 354.87 63.65 356.75 63.79
  Z
  M 843.69 251.94
  Q 843.36 529.09 843.48 693.56
  Q 843.63 893.62 843.56 1093.69
  A 0.43 0.42 85.4 0 0 844.05 1094.11
  Q 847.60 1093.54 851.07 1092.59
  Q 1007.93 1049.68 1164.75 1006.63
  Q 1164.82 1006.61 1166.15 1006.37
  Q 1168.50 1005.95 1168.75 1003.00
  Q 1181.36 856.80 1213.00 505.50
  Q 1218.78 441.30 1244.00 157.50
  Q 1244.34 153.70 1243.68 151.71
  A 0.65 0.59 -11.7 0 0 1243.00 151.31
  Q 1241.06 151.51 1237.50 151.50
  Q 1085.71 151.29 844.44 151.69
  A 0.51 0.51 -89.4 0 0 843.93 152.19
  Q 843.78 173.63 843.69 251.94
  Z
  M 707.96 790.53
  Q 699.20 787.63 693.25 786.00
  Q 606.07 762.08 519.39 737.86
  A 0.90 0.90 -81.9 0 0 518.25 738.72
  Q 517.68 795.38 518.25 851.59
  A 1.08 1.07 -82.9 0 0 519.04 852.62
  Q 569.44 866.48 619.38 880.54
  Q 628.94 883.23 638.66 885.87
  Q 720.61 908.12 803.20 931.60
  A 0.60 0.59 6.8 0 0 803.96 931.01
  Q 803.34 916.79 803.35 903.00
  Q 803.55 592.16 803.44 280.27
  A 1.52 1.52 0.1 0 0 801.92 278.75
  L 709.24 278.75
  A 0.99 0.99 0.0 0 0 708.25 279.74
  Q 707.82 501.87 708.07 724.25
  Q 708.10 757.22 708.43 790.18
  A 0.36 0.36 -81.4 0 1 707.96 790.53
  Z"
/>
<path fill="#766b1f" fill-opacity="0.961" d="
  M 1332.46 74.75
  Q 1332.68 79.30 1331.71 83.75
  Q 1330.81 79.12 1332.46 74.75
  Z"
/>
<path fill="#917b1b" fill-opacity="0.686" d="
  M 354.29 81.25
  L 354.99 87.49
  A 1.43 1.09 -77.8 0 0 355.38 88.32
  Q 357.64 90.31 356.95 92.80
  Q 356.61 94.00 356.81 95.22
  Q 358.07 103.14 357.04 108.25
  Q 356.46 112.63 357.21 117.00
  L 357.21 119.50
  L 356.50 112.48
  Q 356.22 109.71 355.65 108.33
  Q 354.18 104.79 354.33 101.49
  Q 354.53 97.12 354.46 92.75
  L 354.29 81.25
  Z"
/>
<path fill="#917b1b" fill-opacity="0.686" d="
  M 357.04 108.25
  L 357.46 115.25
  Q 357.12 116.08 357.21 117.00
  Q 356.46 112.63 357.04 108.25
  Z"
/>
<path fill="#766b1f" fill-opacity="0.961" d="
  M 357.46 115.25
  Q 358.23 121.23 357.96 127.25
  L 357.21 119.50
  L 357.21 117.00
  Q 357.12 116.08 357.46 115.25
  Z"
/>
<path fill="#ffd839" d="
  M 843.69 251.94
  Q 843.78 173.63 843.93 152.19
  A 0.51 0.51 -89.4 0 1 844.44 151.69
  Q 1085.71 151.29 1237.50 151.50
  Q 1241.06 151.51 1243.00 151.31
  A 0.65 0.59 -11.7 0 1 1243.68 151.71
  Q 1244.34 153.70 1244.00 157.50
  Q 1218.78 441.30 1213.00 505.50
  Q 1181.36 856.80 1168.75 1003.00
  Q 1168.50 1005.95 1166.15 1006.37
  Q 1164.82 1006.61 1164.75 1006.63
  Q 1007.93 1049.68 851.07 1092.59
  Q 847.60 1093.54 844.05 1094.11
  A 0.43 0.42 85.4 0 1 843.56 1093.69
  Q 843.63 893.62 843.48 693.56
  Q 843.36 529.09 843.69 251.94
  Z
  M 1076.91 669.39
  Q 1075.89 696.42 1074.41 724.26
  Q 1073.35 744.25 1072.45 765.37
  A 1.62 1.62 84.0 0 1 1071.24 766.87
  Q 1022.81 779.24 973.83 792.40
  Q 948.13 799.31 922.34 805.93
  Q 902.85 810.94 883.37 816.54
  A 1.20 1.19 -8.1 0 0 882.50 817.69
  Q 882.50 872.25 882.39 925.00
  Q 882.38 927.76 882.06 930.06
  A 0.79 0.79 86.5 0 0 883.04 930.93
  L 1146.54 862.17
  A 1.43 1.42 -4.7 0 0 1147.61 860.92
  Q 1149.89 837.22 1151.39 814.43
  Q 1151.96 805.84 1152.92 795.10
  Q 1153.78 785.43 1154.41 775.74
  Q 1155.06 765.76 1155.98 755.81
  Q 1157.41 740.42 1158.26 725.00
  Q 1158.78 715.60 1159.75 705.04
  Q 1160.86 693.01 1162.25 674.00
  Q 1164.44 644.04 1172.52 545.18
  A 0.47 0.46 2.9 0 0 1172.06 544.68
  Q 1167.44 544.68 1158.75 545.75
  Q 1069.88 556.67 979.03 567.74
  A 1.31 1.31 -3.5 0 1 977.56 566.44
  L 977.50 394.91
  A 1.41 1.40 90.0 0 1 978.90 393.50
  Q 1067.90 393.10 1157.51 393.24
  Q 1157.52 393.24 1169.49 393.49
  Q 1175.49 393.62 1181.49 393.28
  Q 1181.91 393.26 1182.46 393.45
  Q 1183.60 393.86 1184.41 393.13
  A 1.47 1.00 79.2 0 0 1184.79 392.25
  Q 1185.79 379.82 1187.13 367.43
  Q 1188.06 358.74 1188.84 347.51
  Q 1189.72 334.85 1191.25 322.25
  Q 1192.05 315.70 1192.55 302.57
  Q 1192.77 296.78 1193.39 290.97
  Q 1194.00 285.26 1194.53 279.37
  A 0.57 0.56 -87.2 0 0 1193.97 278.75
  L 883.57 278.81
  A 0.81 0.81 -89.6 0 0 882.76 279.61
  Q 882.40 302.62 882.41 325.00
  Q 882.50 506.87 882.50 688.75
  Q 882.50 688.86 882.63 694.24
  Q 882.73 698.21 882.27 702.07
  A 0.62 0.62 -1.4 0 0 882.99 702.75
  Q 933.55 694.01 984.02 684.84
  Q 1029.61 676.56 1075.78 668.41
  A 0.96 0.96 85.9 0 1 1076.91 669.39
  Z"
/>
<path fill="#ececec" d="
  M 708.43 790.18
  Q 708.10 757.22 708.07 724.25
  Q 707.82 501.87 708.25 279.74
  A 0.99 0.99 0.0 0 1 709.24 278.75
  L 801.92 278.75
  A 1.52 1.52 -0.1 0 1 803.44 280.27
  Q 803.55 592.16 803.35 903.00
  Q 803.34 916.79 803.96 931.01
  A 0.60 0.59 6.8 0 1 803.20 931.60
  Q 720.61 908.12 638.66 885.87
  Q 628.94 883.23 619.38 880.54
  Q 569.44 866.48 519.04 852.62
  A 1.08 1.07 -82.9 0 1 518.25 851.59
  Q 517.68 795.38 518.25 738.72
  A 0.90 0.90 -81.9 0 1 519.39 737.86
  Q 606.07 762.08 693.25 786.00
  Q 699.20 787.63 707.96 790.53
  A 0.36 0.36 -81.4 0 0 708.43 790.18
  Z"
/>
<path fill="#ffffff" d="
  M 1076.91 669.39
  A 0.96 0.96 85.9 0 0 1075.78 668.41
  Q 1029.61 676.56 984.02 684.84
  Q 933.55 694.01 882.99 702.75
  A 0.62 0.62 -1.4 0 1 882.27 702.07
  Q 882.73 698.21 882.63 694.24
  Q 882.50 688.86 882.50 688.75
  Q 882.50 506.87 882.41 325.00
  Q 882.40 302.62 882.76 279.61
  A 0.81 0.81 -89.6 0 1 883.57 278.81
  L 1193.97 278.75
  A 0.57 0.56 -87.2 0 1 1194.53 279.37
  Q 1194.00 285.26 1193.39 290.97
  Q 1192.77 296.78 1192.55 302.57
  Q 1192.05 315.70 1191.25 322.25
  Q 1189.72 334.85 1188.84 347.51
  Q 1188.06 358.74 1187.13 367.43
  Q 1185.79 379.82 1184.79 392.25
  A 1.47 1.00 79.2 0 1 1184.41 393.13
  Q 1183.60 393.86 1182.46 393.45
  Q 1181.91 393.26 1181.49 393.28
  Q 1175.49 393.62 1169.49 393.49
  Q 1157.52 393.24 1157.51 393.24
  Q 1067.90 393.10 978.90 393.50
  A 1.41 1.40 90.0 0 0 977.50 394.91
  L 977.56 566.44
  A 1.31 1.31 -3.5 0 0 979.03 567.74
  Q 1069.88 556.67 1158.75 545.75
  Q 1167.44 544.68 1172.06 544.68
  A 0.47 0.46 2.9 0 1 1172.52 545.18
  Q 1164.44 644.04 1162.25 674.00
  Q 1160.86 693.01 1159.75 705.04
  Q 1158.78 715.60 1158.26 725.00
  Q 1157.41 740.42 1155.98 755.81
  Q 1155.06 765.76 1154.41 775.74
  Q 1153.78 785.43 1152.92 795.10
  Q 1151.96 805.84 1151.39 814.43
  Q 1149.89 837.22 1147.61 860.92
  A 1.43 1.42 -4.7 0 1 1146.54 862.17
  L 883.04 930.93
  A 0.79 0.79 86.5 0 1 882.06 930.06
  Q 882.38 927.76 882.39 925.00
  Q 882.50 872.25 882.50 817.69
  A 1.20 1.19 -8.1 0 1 883.37 816.54
  Q 902.85 810.94 922.34 805.93
  Q 948.13 799.31 973.83 792.40
  Q 1022.81 779.24 1071.24 766.87
  A 1.62 1.62 84.0 0 0 1072.45 765.37
  Q 1073.35 744.25 1074.41 724.26
  Q 1075.89 696.42 1076.91 669.39
  Z"
/>
<path fill="#766b1f" fill-opacity="0.961" d="
  M 375.79 327.25
  Q 377.12 328.83 376.71 331.00
  L 376.04 331.00
  Q 375.53 329.16 375.79 327.25
  Z"
/>
<path fill="#766b1f" fill-opacity="0.961" d="
  M 376.04 331.00
  L 376.71 331.00
  L 376.96 338.25
  L 376.04 331.00
  Z"
/>
<path fill="#766b1f" fill-opacity="0.961" d="
  M 439.37 1042.26
  Q 440.55 1044.12 440.29 1046.25
  Q 440.37 1046.74 440.04 1047.00
  L 439.37 1042.26
  Z"
/>
<path fill="#766b1f" fill-opacity="0.961" d="
  M 440.29 1046.25
  Q 441.33 1049.59 440.71 1053.00
  L 440.04 1047.00
  Q 440.37 1046.74 440.29 1046.25
  Z"
/>
</svg>
