<?xml version="1.0" encoding="UTF-8" standalone="no"?>
<!DOCTYPE svg PUBLIC "-//W3C//DTD SVG 1.1//EN" "http://www.w3.org/Graphics/SVG/1.1/DTD/svg11.dtd">
<svg xmlns="http://www.w3.org/2000/svg" version="1.1" viewBox="0 0 800 1463">
<path fill="#f8981d" d="
  M 447.94 180.19
  Q 461.12 167.36 474.06 150.81
  Q 484.86 137.00 493.10 119.81
  Q 497.69 110.22 500.55 101.28
  Q 506.98 81.13 507.40 59.75
  Q 507.85 36.35 502.07 13.71
  Q 501.39 11.04 503.10 13.20
  Q 524.79 40.58 527.59 74.76
  Q 528.37 84.31 527.49 94.74
  Q 525.47 118.63 515.93 140.86
  Q 506.60 162.61 492.94 181.94
  Q 480.19 199.98 465.15 216.16
  Q 436.57 246.89 403.52 272.76
  Q 378.22 292.58 357.69 316.19
  Q 342.75 333.36 333.26 354.65
  Q 316.89 391.38 330.75 429.50
  Q 335.13 441.55 340.65 451.64
  Q 351.00 470.59 365.31 490.69
  Q 367.04 493.11 375.18 505.08
  Q 375.21 505.13 381.53 514.23
  Q 394.03 532.25 403.64 551.77
  Q 404.46 553.45 403.07 552.20
  Q 383.62 534.66 364.65 516.61
  Q 334.71 488.10 309.18 455.60
  Q 294.41 436.80 284.56 416.44
  Q 280.32 407.65 277.19 396.65
  Q 267.74 363.31 282.97 334.17
  Q 286.69 327.04 293.93 317.47
  Q 307.88 299.01 325.56 282.81
  Q 343.92 265.99 360.73 252.74
  Q 402.07 220.15 414.31 210.06
  Q 433.35 194.38 447.94 180.19
  Z"
/>
<path fill="#f8981d" d="
  M 441.88 307.62
  Q 464.49 285.17 491.92 268.90
  Q 530.89 245.80 573.39 230.06
  Q 597.10 221.28 622.67 214.09
  Q 625.60 213.27 622.96 214.79
  Q 581.84 238.46 541.51 266.53
  Q 526.95 276.66 505.31 294.81
  Q 487.23 309.98 474.31 328.06
  Q 469.85 334.31 466.49 341.77
  Q 462.98 349.55 461.72 356.70
  Q 458.71 373.93 465.94 390.81
  Q 470.90 402.41 476.81 411.69
  Q 483.05 421.48 497.35 441.45
  Q 505.59 452.96 508.28 458.16
  Q 522.86 486.31 510.56 515.70
  Q 507.01 524.18 500.75 533.07
  Q 490.46 547.68 475.44 560.69
  Q 458.27 575.55 438.44 586.78
  Q 436.10 588.11 438.07 586.28
  Q 450.84 574.41 458.72 559.51
  Q 463.67 550.12 465.59 540.80
  Q 471.38 512.66 452.83 488.93
  Q 446.74 481.15 440.53 473.48
  Q 425.69 455.15 416.06 434.44
  Q 408.55 418.27 406.19 399.98
  Q 402.42 370.74 415.19 344.69
  Q 425.27 324.12 441.88 307.62
  Z"
/>
<path fill="#5382a1" d="
  M 668.44 557.81
  Q 661.28 557.25 653.07 558.87
  Q 643.61 560.73 633.34 564.04
  Q 631.93 564.49 632.86 563.35
  Q 638.74 556.05 647.01 552.88
  Q 663.78 546.46 681.75 545.73
  Q 706.51 544.73 728.19 555.81
  Q 740.93 562.33 750.53 573.47
  Q 768.78 594.65 766.25 622.00
  Q 765.10 634.46 758.75 647.50
  Q 751.44 662.51 738.03 675.78
  Q 721.93 691.72 702.36 703.14
  Q 681.52 715.30 659.00 724.00
  Q 635.82 732.94 611.73 739.34
  Q 610.81 739.58 611.20 738.71
  Q 612.82 735.15 615.73 733.66
  Q 648.97 716.65 678.08 693.31
  Q 695.56 679.29 709.31 660.81
  Q 719.68 646.87 723.84 630.56
  Q 726.50 620.15 725.68 610.75
  Q 723.86 589.80 707.59 574.92
  Q 690.80 559.58 668.44 557.81
  Z"
/>
<path fill="#5382a1" d="
  M 256.18 640.46
  Q 221.21 638.83 186.51 634.20
  Q 172.16 632.29 157.97 629.39
  Q 146.12 626.97 133.25 622.00
  Q 128.76 620.26 125.24 617.96
  Q 121.98 615.83 120.74 614.55
  Q 118.54 612.27 118.35 609.18
  Q 118.13 605.79 120.80 602.41
  Q 123.13 599.46 126.40 597.38
  Q 134.07 592.50 142.34 588.71
  Q 192.89 565.54 248.00 557.76
  Q 267.65 554.98 287.52 555.00
  Q 292.29 555.00 287.65 556.13
  Q 256.34 563.72 223.55 575.62
  Q 212.41 579.67 201.90 585.12
  Q 194.49 588.96 190.56 593.81
  Q 186.66 598.63 191.56 602.94
  Q 194.91 605.88 202.04 607.87
  Q 220.56 613.03 239.74 614.63
  Q 261.21 616.41 282.75 616.80
  Q 446.95 619.76 610.39 591.72
  Q 614.47 591.02 610.68 592.67
  Q 590.26 601.58 569.83 614.68
  Q 568.77 615.36 567.55 615.66
  Q 530.11 624.84 493.06 630.05
  Q 434.55 638.26 375.51 640.73
  Q 315.84 643.23 256.18 640.46
  Z"
/>
<path fill="#5382a1" d="
  M 256.91 737.43
  Q 242.30 734.47 228.21 729.60
  Q 216.98 725.73 207.09 719.15
  Q 202.21 715.91 198.97 711.04
  Q 196.68 707.60 196.63 703.74
  Q 196.58 700.46 198.70 696.74
  Q 202.57 689.94 209.69 685.44
  Q 228.23 673.72 248.27 667.89
  Q 248.75 667.75 248.37 668.07
  Q 244.00 671.87 240.39 676.40
  Q 236.07 681.82 236.06 687.44
  Q 236.06 690.52 238.06 693.25
  Q 239.54 695.26 242.52 697.12
  Q 248.11 700.63 255.25 702.25
  Q 263.47 704.12 269.00 704.73
  Q 302.30 708.39 335.75 709.90
  Q 399.16 712.76 462.09 704.51
  Q 498.23 699.78 534.69 692.61
  A 1.95 1.95 60.6 0 1 536.36 693.08
  Q 553.55 708.68 575.60 716.94
  Q 576.52 717.29 575.57 717.56
  Q 494.82 740.48 411.01 745.71
  Q 357.07 749.08 303.25 744.21
  Q 279.89 742.10 256.91 737.43
  Z"
/>
<path fill="#5382a1" d="
  M 256.35 835.77
  Q 244.14 830.76 234.56 822.69
  Q 231.81 820.37 229.56 817.26
  Q 227.15 813.94 226.34 810.72
  Q 224.60 803.78 229.06 798.06
  Q 235.58 789.70 247.34 784.46
  Q 258.73 779.38 270.83 775.98
  Q 273.39 775.26 271.16 776.71
  Q 266.23 779.90 263.25 785.00
  Q 262.05 787.04 262.46 789.54
  Q 262.78 791.57 264.45 793.43
  Q 267.53 796.88 272.04 798.50
  Q 280.92 801.69 290.28 803.01
  Q 325.13 807.90 358.25 809.50
  Q 380.00 810.55 402.76 809.54
  Q 412.09 809.13 422.70 808.08
  Q 463.48 804.08 503.43 796.06
  A 2.59 2.54 -35.1 0 1 505.19 796.35
  Q 531.47 811.51 557.76 821.90
  Q 559.11 822.44 557.77 822.99
  Q 514.32 841.02 468.00 849.25
  Q 423.11 857.23 377.50 856.70
  Q 340.73 856.27 304.54 849.81
  Q 279.68 845.37 256.35 835.77
  Z"
/>
<path fill="#5382a1" d="
  M 250.21 948.22
  Q 172.36 943.30 85.75 929.50
  Q 64.76 926.15 49.06 918.44
  Q 47.13 917.49 44.07 914.95
  Q 40.50 911.99 39.32 907.84
  Q 38.25 904.06 39.91 899.79
  Q 42.27 893.68 47.94 888.94
  Q 58.41 880.17 67.79 875.32
  Q 110.69 853.11 158.78 847.73
  Q 168.99 846.59 179.25 847.27
  Q 187.03 847.78 194.45 850.92
  Q 198.05 852.45 194.14 852.42
  Q 185.26 852.36 174.24 854.17
  Q 143.75 859.17 115.98 872.66
  Q 107.27 876.89 102.31 883.56
  Q 101.07 885.23 101.22 887.50
  Q 101.33 889.35 102.63 891.11
  Q 105.16 894.54 109.56 896.44
  Q 122.73 902.11 134.33 905.14
  Q 158.01 911.32 182.24 914.80
  Q 201.82 917.60 221.51 919.44
  Q 261.68 923.18 302.00 924.51
  Q 361.00 926.44 420.00 924.59
  Q 430.57 924.26 439.99 923.94
  Q 511.59 921.49 582.77 913.15
  Q 622.54 908.48 661.55 899.47
  Q 680.77 895.03 696.94 886.44
  Q 701.51 884.01 705.79 879.30
  Q 716.33 867.74 705.55 856.17
  Q 704.75 855.32 705.82 855.80
  Q 712.13 858.70 717.66 863.33
  Q 726.60 870.80 721.44 881.44
  Q 719.34 885.76 713.05 890.50
  Q 703.01 898.07 691.71 903.38
  Q 685.47 906.31 673.18 910.87
  Q 658.49 916.32 643.32 920.36
  Q 602.68 931.18 561.07 937.38
  Q 539.21 940.64 517.23 943.02
  Q 393.94 956.36 270.17 949.41
  Q 259.96 948.83 250.21 948.22
  Z"
/>
<path fill="#5382a1" d="
  M 257.67 991.18
  Q 233.74 988.40 210.17 983.38
  Q 195.96 980.35 182.28 975.42
  Q 176.59 973.37 171.30 970.43
  Q 169.71 969.55 171.51 969.83
  Q 193.43 973.26 216.01 975.70
  Q 276.45 982.24 337.24 983.50
  Q 427.39 985.36 525.75 976.00
  Q 597.60 969.16 667.71 952.09
  Q 692.96 945.94 717.29 936.86
  Q 736.44 929.71 753.52 918.51
  Q 761.03 913.59 765.58 907.69
  Q 767.35 905.39 766.75 908.23
  Q 763.06 925.72 749.31 937.06
  Q 739.02 945.56 730.79 950.02
  Q 709.00 961.82 685.22 968.79
  Q 656.46 977.23 626.94 982.44
  Q 604.68 986.38 582.23 989.10
  Q 518.95 996.77 448.25 998.50
  Q 389.47 999.93 330.74 997.15
  Q 294.10 995.41 257.67 991.18
  Z"
/>
<path fill="#5382a1" d="
  M 17.84 1424.59
  A 0.48 0.48 -33.8 0 1 17.99 1423.85
  Q 37.56 1413.63 50.80 1396.55
  Q 56.42 1389.31 59.34 1382.09
  Q 62.51 1374.24 63.62 1365.68
  Q 66.16 1346.06 66.04 1326.29
  Q 66.00 1319.27 66.00 1319.22
  Q 66.00 1191.73 66.00 1064.09
  A 1.09 1.09 -0.1 0 1 67.09 1063.00
  L 114.75 1063.00
  A 0.50 0.50 0.0 0 1 115.25 1063.50
  Q 115.25 1172.88 115.25 1282.25
  Q 115.25 1285.74 115.38 1302.25
  Q 115.62 1334.00 113.75 1359.25
  Q 113.23 1366.25 111.33 1375.33
  Q 109.42 1384.43 106.82 1390.93
  Q 98.29 1412.23 79.31 1428.31
  Q 62.58 1442.50 41.00 1450.72
  A 1.14 1.11 -30.2 0 1 39.73 1450.40
  L 17.84 1424.59
  Z"
/>
<path fill="#5382a1" d="
  M 286.98 1345.89
  Q 286.83 1344.88 286.07 1345.55
  Q 277.84 1352.86 268.60 1358.68
  Q 259.65 1364.31 250.78 1367.72
  Q 223.91 1378.06 194.73 1371.86
  Q 157.57 1363.96 150.25 1327.50
  Q 147.87 1315.67 149.36 1302.61
  Q 150.58 1291.95 154.15 1283.27
  Q 160.98 1266.69 175.31 1256.56
  Q 191.81 1244.91 213.69 1239.69
  Q 231.23 1235.50 249.25 1234.71
  Q 264.62 1234.03 279.55 1234.24
  A 0.92 0.91 -89.1 0 0 280.48 1233.33
  Q 280.67 1220.75 280.24 1209.25
  Q 279.24 1182.98 255.00 1176.00
  Q 245.56 1173.28 232.75 1173.66
  Q 199.39 1174.65 168.10 1186.47
  A 0.59 0.58 72.5 0 1 167.32 1186.06
  L 160.86 1158.73
  A 0.62 0.60 -18.9 0 1 161.21 1158.04
  Q 203.40 1138.92 250.75 1139.50
  Q 267.42 1139.70 282.55 1144.40
  Q 293.29 1147.74 300.71 1152.59
  Q 316.18 1162.72 322.50 1180.75
  Q 326.77 1192.94 326.78 1207.50
  Q 326.80 1288.22 326.69 1368.94
  A 0.51 0.50 -0.0 0 1 326.18 1369.44
  L 291.06 1369.44
  A 0.59 0.58 -4.6 0 1 290.48 1368.95
  L 286.98 1345.89
  Z
  M 206.32 1332.16
  Q 214.01 1338.71 225.25 1339.75
  Q 235.66 1340.72 244.50 1338.00
  Q 264.10 1331.97 280.13 1317.59
  A 1.15 1.11 -22.0 0 0 280.50 1316.76
  L 280.32 1264.43
  A 0.53 0.51 1.2 0 0 279.81 1263.92
  Q 269.70 1263.56 254.00 1264.00
  Q 239.24 1264.41 226.81 1267.29
  Q 214.82 1270.06 206.81 1276.56
  Q 196.68 1284.80 195.37 1298.99
  Q 194.75 1305.79 196.00 1313.50
  Q 197.86 1324.94 206.32 1332.16
  Z"
/>
<path fill="#5382a1" d="
  M 709.22 1345.54
  Q 709.11 1344.82 708.58 1345.30
  Q 699.59 1353.31 689.40 1359.55
  Q 680.36 1365.08 671.48 1368.32
  Q 647.13 1377.19 620.75 1372.49
  Q 574.19 1364.19 571.25 1317.00
  Q 568.80 1277.63 598.41 1255.98
  Q 605.76 1250.61 615.84 1246.30
  Q 633.35 1238.80 652.50 1236.51
  Q 676.54 1233.63 701.93 1234.28
  A 0.80 0.80 0.7 0 0 702.75 1233.48
  Q 702.75 1223.12 702.77 1213.75
  Q 702.78 1207.13 701.28 1200.78
  Q 699.60 1193.64 696.34 1188.88
  Q 691.87 1182.35 684.44 1178.81
  Q 677.09 1175.32 668.49 1174.36
  Q 651.53 1172.46 634.66 1175.00
  Q 611.95 1178.41 590.44 1186.44
  A 0.64 0.62 -16.5 0 1 589.61 1186.00
  L 583.11 1158.74
  A 0.61 0.61 -19.2 0 1 583.45 1158.04
  Q 623.32 1139.93 668.75 1139.50
  Q 686.13 1139.33 701.71 1143.49
  Q 712.66 1146.41 720.25 1150.84
  Q 736.43 1160.27 743.69 1178.06
  Q 749.02 1191.14 749.02 1207.00
  Q 749.00 1288.00 749.00 1368.91
  A 0.65 0.65 0.4 0 1 748.34 1369.56
  L 713.31 1369.44
  A 0.59 0.57 -3.9 0 1 712.73 1368.95
  L 709.22 1345.54
  Z
  M 628.67 1332.58
  Q 633.49 1336.58 639.06 1338.19
  Q 651.32 1341.73 664.08 1338.63
  Q 675.79 1335.78 686.44 1329.19
  Q 695.18 1323.77 702.30 1317.76
  A 1.11 1.05 -21.1 0 0 702.69 1316.94
  L 702.57 1264.43
  A 0.52 0.51 1.2 0 0 702.07 1263.92
  Q 683.60 1263.18 665.18 1264.52
  Q 648.55 1265.73 635.56 1272.31
  Q 620.89 1279.75 618.12 1295.51
  Q 617.06 1301.57 617.49 1308.03
  Q 617.92 1314.36 620.12 1320.42
  Q 622.76 1327.68 628.67 1332.58
  Z"
/>
<path fill="#5382a1" d="
  M 457.58 1323.29
  Q 475.10 1274.00 487.50 1222.75
  Q 496.03 1187.50 502.12 1144.18
  A 0.58 0.57 -86.0 0 1 502.69 1143.68
  L 550.29 1143.51
  A 0.66 0.66 -85.3 0 1 550.95 1144.29
  Q 538.87 1212.06 517.83 1276.78
  Q 502.56 1323.73 481.50 1369.03
  A 0.80 0.79 11.9 0 1 480.77 1369.50
  L 424.12 1369.50
  A 0.86 0.86 -8.8 0 1 423.30 1368.90
  L 354.25 1144.24
  A 0.57 0.57 81.3 0 1 354.79 1143.50
  L 403.93 1143.50
  A 0.69 0.69 81.4 0 1 404.59 1143.99
  Q 424.97 1209.35 445.00 1274.25
  Q 448.72 1286.32 451.02 1296.64
  Q 453.90 1309.57 456.91 1323.24
  Q 457.18 1324.43 457.58 1323.29
  Z"
/>
<path fill="#5382a1" d="
  M 758.19 1146.77
  L 754.31 1146.87
  A 0.72 0.57 -8.6 0 1 753.63 1146.48
  Q 753.25 1145.41 753.45 1144.30
  A 0.63 0.61 4.9 0 1 754.07 1143.80
  L 767.19 1143.80
  A 0.76 0.70 -9.3 0 1 767.89 1144.26
  Q 768.26 1145.25 767.89 1146.23
  A 0.75 0.72 9.3 0 1 767.19 1146.71
  L 763.42 1146.74
  A 0.91 0.85 -0.7 0 0 762.52 1147.60
  L 762.66 1160.93
  A 0.86 0.68 79.7 0 1 762.26 1161.68
  Q 761.05 1162.26 759.24 1161.90
  A 0.62 0.61 -84.3 0 1 758.75 1161.29
  L 758.69 1147.30
  A 0.53 0.49 89.5 0 0 758.19 1146.77
  Z"
/>
<path fill="#5382a1" d="
  M 774.54 1148.57
  L 774.66 1160.94
  A 0.79 0.73 78.1 0 1 774.23 1161.66
  Q 770.66 1163.31 770.85 1159.70
  Q 770.98 1157.41 770.98 1157.29
  Q 770.89 1150.86 771.17 1144.43
  A 0.60 0.52 -88.9 0 1 771.69 1143.85
  L 775.83 1143.86
  A 0.84 0.66 76.8 0 1 776.50 1144.39
  L 780.74 1155.48
  Q 781.34 1157.05 781.93 1155.45
  L 786.11 1144.27
  A 0.75 0.72 9.3 0 1 786.81 1143.79
  L 790.72 1143.77
  A 0.79 0.78 -90.0 0 1 791.50 1144.56
  Q 791.50 1151.83 791.50 1159.14
  Q 791.50 1161.20 791.43 1161.35
  Q 790.94 1162.32 788.53 1161.78
  A 0.69 0.68 -83.7 0 1 788.00 1161.11
  L 787.95 1149.93
  Q 787.94 1147.22 787.00 1149.77
  L 782.86 1160.96
  A 1.32 1.06 -88.8 0 1 782.26 1161.67
  Q 780.02 1162.75 779.25 1160.00
  Q 777.89 1155.16 774.78 1148.52
  Q 774.54 1148.01 774.54 1148.57
  Z"
/>
</svg>
