<?xml version="1.0" encoding="UTF-8" standalone="no"?>
<!DOCTYPE svg PUBLIC "-//W3C//DTD SVG 1.1//EN" "http://www.w3.org/Graphics/SVG/1.1/DTD/svg11.dtd">
<svg xmlns="http://www.w3.org/2000/svg" version="1.1" viewBox="0 0 1448 1448">
<path fill="#000000" d="
  M 669.66 1123.92
  Q 569.50 1220.25 469.41 1316.67
  Q 462.32 1323.50 453.81 1319.44
  Q 448.65 1316.97 447.03 1310.45
  Q 309.11 752.11 171.25 193.75
  Q 170.41 190.37 171.62 187.00
  Q 172.71 183.96 175.30 181.66
  Q 179.48 177.95 185.02 178.43
  Q 186.45 178.55 194.43 180.85
  Q 329.06 219.67 463.71 258.38
  Q 491.24 266.29 518.76 274.21
  Q 903.72 384.92 1288.58 495.94
  Q 1296.26 498.15 1298.76 500.45
  Q 1303.43 504.73 1302.25 512.25
  Q 1301.70 515.74 1298.67 518.66
  Q 984.24 821.36 669.66 1123.92
  Z
  M 255.11 224.79
  Q 228.71 217.17 202.34 209.77
  A 0.55 0.55 -89.4 0 0 201.66 210.44
  L 260.00 446.56
  Q 260.30 447.80 261.22 446.92
  L 436.51 277.99
  A 0.58 0.58 -58.8 0 0 436.27 277.01
  Q 345.76 250.95 255.11 224.79
  Z
  M 710.99 356.21
  L 481.56 290.04
  A 0.81 0.80 -89.0 0 0 480.56 291.01
  L 537.71 522.54
  Q 538.00 523.70 538.86 522.87
  L 711.20 357.04
  Q 711.82 356.44 710.99 356.21
  Z
  M 303.87 441.37
  Q 293.84 451.07 283.72 460.68
  Q 283.70 460.71 282.33 461.87
  Q 280.32 463.57 283.05 464.06
  Q 284.57 464.33 285.04 464.47
  Q 398.51 496.94 511.95 529.57
  A 0.81 0.81 0.8 0 0 512.96 528.59
  L 455.60 296.13
  A 0.40 0.40 60.9 0 0 454.94 295.94
  Q 379.18 368.54 303.87 441.37
  Z
  M 965.42 455.92
  Q 975.35 446.35 985.26 436.74
  A 1.06 1.05 31.1 0 0 984.82 434.97
  L 755.22 368.89
  A 0.60 0.60 1.1 0 0 754.47 369.61
  Q 782.86 484.71 811.29 599.66
  Q 811.31 599.73 811.63 601.35
  Q 812.15 604.07 813.85 602.18
  Q 815.03 600.87 815.12 600.78
  Q 890.24 528.32 965.42 455.92
  Z
  M 711.52 392.01
  Q 634.20 466.45 556.99 541.01
  Q 555.59 542.36 557.53 542.45
  Q 559.01 542.51 560.62 542.98
  Q 672.95 575.40 785.63 607.78
  A 0.85 0.85 -88.8 0 0 786.69 606.76
  L 729.97 376.39
  A 0.89 0.88 61.7 0 0 728.51 375.95
  Q 719.35 384.47 711.52 392.01
  Z
  M 1134.44 641.45
  Q 1199.45 578.83 1264.32 516.42
  Q 1265.05 515.72 1264.08 515.44
  L 1030.19 448.05
  A 0.48 0.48 -89.3 0 0 1029.60 448.63
  L 1087.82 684.45
  A 0.76 0.75 61.4 0 0 1089.07 684.82
  Q 1111.71 663.34 1134.44 641.45
  Z
  M 841.80 610.29
  Q 836.19 615.69 830.92 621.08
  A 0.40 0.39 -59.8 0 0 831.09 621.74
  L 1061.33 687.84
  A 0.65 0.65 1.1 0 0 1062.14 687.06
  L 1004.72 454.36
  Q 1004.54 453.63 1003.99 454.15
  Q 922.60 532.47 841.80 610.29
  Z
  M 504.10 556.50
  Q 504.77 555.94 505.44 555.12
  A 0.58 0.57 27.7 0 0 505.15 554.20
  L 270.50 486.75
  A 0.41 0.40 -89.2 0 0 270.00 487.24
  L 328.45 723.81
  A 0.81 0.80 61.0 0 0 329.79 724.20
  Q 416.38 640.94 502.61 557.74
  Q 502.67 557.68 504.10 556.50
  Z
  M 779.80 632.58
  L 549.66 566.55
  A 0.54 0.53 3.9 0 0 548.98 567.14
  Q 549.51 570.58 550.32 573.84
  Q 578.40 686.99 606.16 799.58
  Q 606.48 800.86 607.43 799.95
  L 780.05 633.57
  Q 780.79 632.86 779.80 632.58
  Z
  M 437.28 656.02
  Q 392.26 699.38 347.30 742.83
  A 0.66 0.66 31.1 0 0 347.58 743.94
  L 581.49 811.25
  A 0.81 0.81 -89.0 0 0 582.50 810.27
  L 524.12 573.74
  A 0.52 0.52 -28.7 0 0 523.26 573.49
  Q 480.20 614.69 437.28 656.02
  Z
  M 930.40 837.66
  Q 994.16 776.29 1058.36 714.53
  Q 1059.19 713.73 1058.09 713.42
  L 823.53 646.14
  A 0.53 0.52 -88.8 0 0 822.88 646.77
  L 881.40 883.85
  A 0.40 0.39 -28.7 0 0 882.06 884.04
  Q 906.52 860.65 930.40 837.66
  Z
  M 779.79 669.28
  Q 700.81 745.30 621.92 821.70
  A 0.84 0.84 30.8 0 0 622.28 823.11
  L 854.98 890.14
  A 1.08 1.08 -88.9 0 0 856.33 888.84
  L 798.22 653.33
  A 0.77 0.76 -28.6 0 0 796.95 652.96
  Q 788.07 661.31 779.79 669.28
  Z
  M 569.98 834.49
  L 339.99 768.25
  A 0.36 0.35 1.6 0 0 339.54 768.67
  L 397.08 1001.57
  Q 397.37 1002.74 398.23 1001.90
  L 570.36 836.00
  A 0.90 0.90 31.0 0 0 569.98 834.49
  Z
  M 848.76 914.99
  L 618.82 848.56
  A 0.37 0.37 -88.6 0 0 618.36 849.00
  Q 643.56 951.29 668.56 1053.30
  Q 672.06 1067.58 675.91 1081.43
  A 0.48 0.48 -30.1 0 0 676.71 1081.64
  L 848.98 915.91
  A 0.55 0.55 -58.5 0 0 848.76 914.99
  Z
  M 419.58 1018.68
  L 649.07 1084.51
  A 0.68 0.68 -88.8 0 0 649.92 1083.69
  L 592.65 851.83
  Q 592.24 850.20 591.03 851.37
  L 419.21 1017.16
  Q 418.08 1018.24 419.58 1018.68
  Z
  M 635.93 1120.94
  Q 641.09 1115.97 645.79 1111.44
  Q 646.81 1110.46 645.45 1110.07
  L 408.46 1042.02
  A 0.92 0.92 0.9 0 0 407.31 1043.13
  L 466.30 1281.89
  A 0.91 0.91 61.1 0 0 467.82 1282.33
  Q 551.72 1202.11 635.93 1120.94
  Z"
/>
</svg>
