<?xml version="1.0" encoding="UTF-8" standalone="no"?>
<!DOCTYPE svg PUBLIC "-//W3C//DTD SVG 1.1//EN" "http://www.w3.org/Graphics/SVG/1.1/DTD/svg11.dtd">
<svg xmlns="http://www.w3.org/2000/svg" version="1.1" viewBox="0 0 1362 1539">
<g stroke-width="2.00" fill="none" stroke-linecap="butt">
<path stroke="#666666" vector-effect="non-scaling-stroke" d="
  M 1066.79 189.00
  Q 1068.28 190.90 1069.75 191.75
  Q 1154.80 240.89 1239.79 290.13
  Q 1318.02 335.45 1357.19 358.56
  Q 1358.19 359.15 1357.00 359.71"
/>
<path stroke="#404040" vector-effect="non-scaling-stroke" d="
  M 1357.00 359.71
  L 680.50 752.04"
/>
<path stroke="#666666" vector-effect="non-scaling-stroke" d="
  M 680.50 752.04
  Q 219.63 486.17 3.94 361.06
  Q 1.39 359.58 0.00 359.44"
/>
<path stroke="#262626" vector-effect="non-scaling-stroke" d="
  M 1358.75 1075.46
  Q 1358.47 1074.75 1358.46 1074.00
  Q 1358.11 994.25 1358.11 914.50
  Q 1358.11 637.84 1358.44 361.19
  Q 1358.44 359.63 1357.00 359.71"
/>
<path stroke="#262626" vector-effect="non-scaling-stroke" d="
  M 680.50 752.04
  Q 682.50 752.89 682.50 755.50
  Q 682.50 1146.00 682.50 1536.50"
/>
</g>
<path fill="#808080" d="
  M 739.85 0.00
  L 740.56 0.00
  L 1066.79 189.00
  Q 1068.28 190.90 1069.75 191.75
  Q 1154.80 240.89 1239.79 290.13
  Q 1318.02 335.45 1357.19 358.56
  Q 1358.19 359.15 1357.00 359.71
  L 680.50 752.04
  Q 219.63 486.17 3.94 361.06
  Q 1.39 359.58 0.00 359.44
  L 0.00 358.69
  Q 41.33 334.57 82.84 310.76
  Q 352.40 156.11 621.94 1.44
  Q 623.88 0.32 624.50 0.21
  Q 625.00 0.60 625.00 2.00
  Q 625.00 137.00 625.00 274.37
  A 2.07 2.07 -15.1 0 1 623.97 276.16
  Q 503.55 345.71 382.64 415.74
  Q 377.66 418.63 376.19 420.76
  Q 373.77 424.27 374.25 429.25
  Q 374.70 433.95 377.69 436.70
  Q 378.38 437.33 384.30 440.75
  Q 524.60 521.76 664.72 603.10
  Q 671.85 607.24 679.25 608.75
  Q 686.78 610.28 693.58 606.34
  Q 837.29 523.05 981.26 440.21
  Q 981.33 440.17 984.44 438.59
  Q 991.23 435.15 990.50 427.50
  Q 990.09 423.22 987.05 419.90
  Q 985.34 418.03 980.50 415.22
  Q 860.64 345.73 740.78 276.17
  A 2.07 2.07 15.1 0 1 739.75 274.38
  L 739.85 0.00
  Z"
/>
<path fill="#4c4c4c" d="
  M 1066.79 189.00
  Q 1074.92 193.43 1078.50 195.50
  Q 1219.69 277.20 1360.95 358.82
  A 1.11 1.09 15.3 0 1 1361.50 359.77
  L 1361.44 1075.68
  A 0.53 0.49 -89.5 0 1 1360.94 1076.21
  Q 1359.78 1076.18 1358.75 1075.46
  Q 1358.47 1074.75 1358.46 1074.00
  Q 1358.11 994.25 1358.11 914.50
  Q 1358.11 637.84 1358.44 361.19
  Q 1358.44 359.63 1357.00 359.71
  Q 1358.19 359.15 1357.19 358.56
  Q 1318.02 335.45 1239.79 290.13
  Q 1154.80 240.89 1069.75 191.75
  Q 1068.28 190.90 1066.79 189.00
  Z"
/>
<path fill="#4c4c4c" d="
  M 0.00 359.44
  Q 1.39 359.58 3.94 361.06
  Q 219.63 486.17 680.50 752.04
  Q 682.50 752.89 682.50 755.50
  Q 682.50 1146.00 682.50 1536.50
  Q 681.47 1537.92 679.75 1538.08
  Q 678.58 1538.19 676.97 1537.20
  Q 674.14 1535.46 666.81 1531.19
  Q 331.13 1335.20 67.36 1182.96
  Q 64.46 1181.29 62.66 1179.93
  Q 60.32 1178.18 58.35 1176.33
  A 0.71 0.71 -38.5 0 1 58.48 1175.20
  L 293.25 1039.01
  A 2.75 2.73 -44.8 0 1 296.02 1039.01
  Q 414.08 1107.50 532.50 1176.09
  Q 538.26 1179.42 541.04 1179.76
  Q 545.86 1180.36 550.56 1177.31
  Q 557.31 1172.94 557.32 1165.00
  Q 557.50 1004.43 557.50 843.86
  Q 557.50 843.75 557.56 838.65
  Q 557.65 830.16 556.44 825.81
  Q 554.56 819.10 549.50 814.75
  Q 545.90 811.66 541.36 809.14
  Q 537.91 807.23 537.80 807.17
  Q 305.77 672.81 256.19 644.31
  Q 253.93 643.02 251.24 643.49
  Q 249.56 643.79 246.64 644.94
  Q 240.84 647.23 238.40 652.59
  Q 237.00 655.65 237.00 662.15
  Q 237.00 799.96 237.00 938.36
  A 1.31 1.31 -15.2 0 1 236.35 939.49
  Q 118.83 1007.55 1.31 1075.81
  Q 0.83 1076.75 0.00 1076.19
  L 0.00 359.44
  Z"
/>
<path fill="#000000" d="
  M 1357.00 359.71
  Q 1358.44 359.63 1358.44 361.19
  Q 1358.11 637.84 1358.11 914.50
  Q 1358.11 994.25 1358.46 1074.00
  Q 1358.47 1074.75 1358.75 1075.46
  Q 1358.22 1075.66 1358.30 1076.24
  Q 1358.94 1080.89 1356.16 1078.98
  Q 1354.37 1077.74 1354.24 1077.66
  Q 1238.00 1010.03 1121.74 942.44
  A 0.87 0.86 -75.0 0 1 1121.31 941.69
  Q 1121.13 716.76 1121.25 662.00
  Q 1121.26 656.65 1119.41 652.30
  Q 1117.39 647.53 1113.41 645.74
  Q 1108.69 643.61 1103.56 646.56
  Q 961.59 728.43 819.69 810.44
  Q 813.59 813.96 810.94 816.21
  Q 801.19 824.50 801.17 837.50
  Q 801.00 1003.50 801.00 1169.50
  Q 801.00 1171.77 801.63 1174.35
  Q 802.24 1176.83 803.40 1178.88
  Q 808.92 1188.63 819.81 1182.31
  Q 941.19 1111.88 1062.90 1041.66
  A 1.37 1.37 -44.4 0 1 1064.27 1041.67
  L 1299.20 1178.37
  A 1.05 1.04 45.1 0 1 1299.20 1180.18
  Q 992.20 1357.32 685.25 1534.50
  Q 683.29 1535.63 682.50 1536.50
  Q 682.50 1146.00 682.50 755.50
  Q 682.50 752.89 680.50 752.04
  L 1357.00 359.71
  Z"
/>
</svg>
